<svg version="1.1" viewBox="0.0 0.0 232.36482939632546 217.86614173228347" fill="none" stroke="none" stroke-linecap="square" stroke-miterlimit="10" xmlns:xlink="http://www.w3.org/1999/xlink" xmlns="http://www.w3.org/2000/svg"><clipPath id="p.0"><path d="m0 0l232.36482 0l0 217.86613l-232.36482 0l0 -217.86613z" clip-rule="nonzero"/></clipPath><g clip-path="url(#p.0)"><path fill="#000000" fill-opacity="0.0" d="m0 0l232.36482 0l0 217.86613l-232.36482 0z" fill-rule="evenodd"/><path fill="#ffffff" d="m9.328084 107.580055l0 0c0 -55.96776 48.085323 -101.338585 107.40157 -101.338585l0 0c28.484665 0 55.802673 10.676712 75.94438 29.681385c20.141708 19.00467 31.4572 44.780537 31.4572 71.657196l0 0c0 55.96775 -48.085327 101.338585 -107.40158 101.338585l0 0c-59.316254 0 -107.40157 -45.370834 -107.40157 -101.338585z" fill-rule="evenodd"/><path stroke="#000000" stroke-width="4.0" stroke-linejoin="round" stroke-linecap="butt" d="m9.328084 107.580055l0 0c0 -55.96776 48.085323 -101.338585 107.40157 -101.338585l0 0c28.484665 0 55.802673 10.676712 75.94438 29.681385c20.141708 19.00467 31.4572 44.780537 31.4572 71.657196l0 0c0 55.96775 -48.085327 101.338585 -107.40158 101.338585l0 0c-59.316254 0 -107.40157 -45.370834 -107.40157 -101.338585z" fill-rule="evenodd"/><path fill="#000000" fill-opacity="0.0" d="m9.328084 107.580055l214.80316 0" fill-rule="evenodd"/><path stroke="#000000" stroke-width="4.0" stroke-linejoin="round" stroke-linecap="butt" d="m9.328084 107.580055l214.80316 0" fill-rule="evenodd"/><path fill="#000000" fill-opacity="0.0" d="m224.13124 107.580055l0 0" fill-rule="evenodd"/><path stroke="#000000" stroke-width="1.0" stroke-linejoin="round" stroke-linecap="butt" d="m224.13124 107.580055l0 0" fill-rule="evenodd"/><path fill="#000000" fill-opacity="0.0" d="m88.761154 50.855644l87.74803 55.96544l-87.74803 57.483376z" fill-rule="evenodd"/><path stroke="#000000" stroke-width="4.0" stroke-linejoin="round" stroke-linecap="butt" d="m88.761154 50.855644l87.74803 55.96544l-87.74803 57.483376z" fill-rule="evenodd"/><path fill="#000000" fill-opacity="0.0" d="m176.50919 62.194225l0 90.77165" fill-rule="evenodd"/><path stroke="#000000" stroke-width="4.0" stroke-linejoin="round" stroke-linecap="butt" d="m176.50919 62.194225l0 90.77165" fill-rule="evenodd"/><path fill="#000000" fill-opacity="0.0" d="m69.06036 50.855644l87.74803 55.96544l-87.74803 57.483376z" fill-rule="evenodd"/><path stroke="#0000ff" stroke-width="4.0" stroke-linejoin="round" stroke-linecap="butt" d="m69.06036 50.855644l87.74803 55.96544l-87.74803 57.483376z" fill-rule="evenodd"/></g></svg>